<svg version="1.1" id="Layer_1" xmlns="http://www.w3.org/2000/svg" xmlns:xlink="http://www.w3.org/1999/xlink" x="0px" y="0px"
	 width="100%" viewBox="0 0 147 150" enable-background="new 0 0 147 150" xml:space="preserve">
<path fill="#FEFEFE" opacity="1.000000" stroke="none" 
	d="
M81.000000,151.000000 
	C54.022320,151.000000 27.544640,151.000000 1.033480,151.000000 
	C1.033480,101.064453 1.033480,51.128876 1.033480,1.096651 
	C49.894123,1.096651 98.788498,1.096651 147.841431,1.096651 
	C147.841431,50.999599 147.841431,100.999748 147.841431,151.000000 
	C125.795921,151.000000 103.647957,151.000000 81.000000,151.000000 
M66.172829,134.551178 
	C96.276070,138.136536 123.038193,122.457993 133.547577,95.079773 
	C142.592667,71.516273 135.087631,40.338692 116.919250,27.578094 
	C116.919250,38.986279 117.003090,50.080574 116.886192,61.172756 
	C116.821411,67.320412 116.932251,73.536560 116.078491,79.597092 
	C113.228760,99.826180 95.445763,114.649078 74.884926,114.374283 
	C53.921307,114.094093 36.473469,98.392792 34.147198,77.714394 
	C31.863428,57.413769 45.006416,38.082634 64.623878,33.032120 
	C75.358040,30.268608 85.704231,31.653454 95.868439,36.870041 
	C95.868439,29.089426 95.868439,21.832262 95.868439,14.203879 
	C73.047874,7.301260 52.110184,10.623279 34.315990,26.533712 
	C15.444212,43.407658 8.761352,65.033958 15.582603,89.458557 
	C22.558498,114.436890 39.745564,129.339645 66.172829,134.551178 
M91.057739,59.496040 
	C90.098213,58.579071 89.206482,57.575970 88.168335,56.758892 
	C80.541039,50.755753 69.858772,50.833714 62.407890,56.905071 
	C54.857677,63.057381 52.567745,73.340469 56.797066,82.100861 
	C60.975868,90.756607 70.566048,95.298203 80.053391,93.114273 
	C94.919472,89.692200 100.526901,73.555931 91.057739,59.496040 
z"/>
<path fill="#5A5A5C" opacity="1.000000" stroke="none" 
	d="
M65.744286,134.443970 
	C39.745564,129.339645 22.558498,114.436890 15.582603,89.458557 
	C8.761352,65.033958 15.444212,43.407658 34.315990,26.533712 
	C52.110184,10.623279 73.047874,7.301260 95.868439,14.203879 
	C95.868439,21.832262 95.868439,29.089426 95.868439,36.870041 
	C85.704231,31.653454 75.358040,30.268608 64.623878,33.032120 
	C45.006416,38.082634 31.863428,57.413769 34.147198,77.714394 
	C36.473469,98.392792 53.921307,114.094093 74.884926,114.374283 
	C95.445763,114.649078 113.228760,99.826180 116.078491,79.597092 
	C116.932251,73.536560 116.821411,67.320412 116.886192,61.172756 
	C117.003090,50.080574 116.919250,38.986279 116.919250,27.578094 
	C135.087631,40.338692 142.592667,71.516273 133.547577,95.079773 
	C123.038193,122.457993 96.276070,138.136536 65.744286,134.443970 
z"/>
<path fill="#ED2128" opacity="1.000000" stroke="none" 
	d="
M91.301544,59.770164 
	C100.526901,73.555931 94.919472,89.692200 80.053391,93.114273 
	C70.566048,95.298203 60.975868,90.756607 56.797066,82.100861 
	C52.567745,73.340469 54.857677,63.057381 62.407890,56.905071 
	C69.858772,50.833714 80.541039,50.755753 88.168335,56.758892 
	C89.206482,57.575970 90.098213,58.579071 91.301544,59.770164 
z"/>
</svg>